
<svg version="1.1" xmlns="http://www.w3.org/2000/svg" xmlns:xlink="http://www.w3.org/1999/xlink" width="1200" height="800"><defs/><g transform="scale(2,2)"><g id="background-b5922d2e"><rect fill="white" stroke="none" x="0" y="0" width="600" height="400" class="dcg-svg-background"/></g><g id="background-images-b5922d2e"/><g id="graphpaper-b5922d2e"><g id="grid-b5922d2e"><g><path fill="none" stroke="rgb(0,0,0)" class="dcg-svg-minor-gridline" paint-order="fill stroke markers" d=" M 30.5 0 L 30.5 400" stroke-opacity="0.2" stroke-miterlimit="10" stroke-dasharray=""/><path fill="none" stroke="rgb(0,0,0)" class="dcg-svg-minor-gridline" paint-order="fill stroke markers" d=" M 153.5 0 L 153.5 400" stroke-opacity="0.2" stroke-miterlimit="10" stroke-dasharray=""/><path fill="none" stroke="rgb(0,0,0)" class="dcg-svg-minor-gridline" paint-order="fill stroke markers" d=" M 397.5 0 L 397.5 400" stroke-opacity="0.2" stroke-miterlimit="10" stroke-dasharray=""/><path fill="none" stroke="rgb(0,0,0)" class="dcg-svg-minor-gridline" paint-order="fill stroke markers" d=" M 520.5 0 L 520.5 400" stroke-opacity="0.2" stroke-miterlimit="10" stroke-dasharray=""/><path fill="none" stroke="rgb(0,0,0)" class="dcg-svg-minor-gridline" paint-order="fill stroke markers" d=" M 0 176.5 L 600 176.5" stroke-opacity="0.2" stroke-miterlimit="10" stroke-dasharray=""/><path fill="none" stroke="rgb(0,0,0)" class="dcg-svg-minor-gridline" paint-order="fill stroke markers" d=" M 0 53.5 L 600 53.5" stroke-opacity="0.2" stroke-miterlimit="10" stroke-dasharray=""/><path fill="none" stroke="rgb(0,0,0)" class="dcg-svg-major-gridline" paint-order="fill stroke markers" d=" M 30.5 0 L 30.5 400" stroke-opacity="0.2500000000000001" stroke-miterlimit="10" stroke-dasharray=""/><path fill="none" stroke="rgb(0,0,0)" class="dcg-svg-major-gridline" paint-order="fill stroke markers" d=" M 153.5 0 L 153.5 400" stroke-opacity="0.2500000000000001" stroke-miterlimit="10" stroke-dasharray=""/><path fill="none" stroke="rgb(0,0,0)" class="dcg-svg-major-gridline" paint-order="fill stroke markers" d=" M 397.5 0 L 397.5 400" stroke-opacity="0.2500000000000001" stroke-miterlimit="10" stroke-dasharray=""/><path fill="none" stroke="rgb(0,0,0)" class="dcg-svg-major-gridline" paint-order="fill stroke markers" d=" M 520.5 0 L 520.5 400" stroke-opacity="0.2500000000000001" stroke-miterlimit="10" stroke-dasharray=""/><path fill="none" stroke="rgb(0,0,0)" class="dcg-svg-major-gridline" paint-order="fill stroke markers" d=" M 0 176.5 L 600 176.5" stroke-opacity="0.2500000000000001" stroke-miterlimit="10" stroke-dasharray=""/><path fill="none" stroke="rgb(0,0,0)" class="dcg-svg-major-gridline" paint-order="fill stroke markers" d=" M 0 53.5 L 600 53.5" stroke-opacity="0.2500000000000001" stroke-miterlimit="10" stroke-dasharray=""/></g></g><g id="axis-b5922d2e"><g id="yaxis-b5922d2e"><title>Y axis</title><path fill="none" stroke="rgb(0,0,0)" class="dcg-svg-axis-line" paint-order="fill stroke markers" d=" M 276 0 L 276 400" stroke-opacity="0.9" stroke-miterlimit="10" stroke-width="1.5" stroke-dasharray=""/></g><g id="xaxis-b5922d2e"><title>X axis</title><path fill="none" stroke="rgb(0,0,0)" class="dcg-svg-axis-line" paint-order="fill stroke markers" d=" M 0 299 L 600 299" stroke-opacity="0.9" stroke-miterlimit="10" stroke-width="1.5" stroke-dasharray=""/></g><g/></g></g><g id="expressions-b5922d2e"><g id="sketch-b5922d2e"><title>Expression 5</title><path fill="#2d70b3" stroke="none" paint-order="stroke fill markers" d="" fill-opacity="0.4"/><path fill="#2d70b3" stroke="none" paint-order="stroke fill markers" d="" fill-opacity="0.4"/><path fill="#2d70b3" stroke="none" class="dcg-svg-region" paint-order="stroke fill markers" d=" M -0.5 298.43371425233886 L 95.30078125 298.3036595621342 L 106.14062500000001 298.0119284004339 L 113.46484374999999 297.5638894057389 L 119.177734375 296.96372671887946 L 124.01171875000001 296.2037792358564 L 128.40625 295.24660924475995 L 132.361328125 294.1153617612003 L 136.16992187500003 292.7388368189337 L 139.83203125 291.1109859387849 L 143.34765625 289.2370258913827 L 146.86328125 287.0352271594318 L 150.525390625 284.3784108465046 L 154.48046875 281.09113716525377 L 158.728515625 277.1006974959008 L 163.708984375 271.8986861782553 L 170.59375 264.090319663575 L 180.408203125 252.9913711786443 L 184.802734375 248.61299968748838 L 188.318359375 245.6002722604696 L 191.24804687500003 243.50854181824863 L 193.884765625 242.0000517672413 L 196.228515625 240.98423021388797 L 198.42578125 240.32621128007918 L 200.4765625 239.9782363899837 L 202.52734375 239.89207571398285 L 204.578125 240.06884787191157 L 206.62890625 240.50611859759795 L 208.82617187500003 241.2568823519611 L 211.169921875 242.36660015716419 L 213.66015624999997 243.87376593578355 L 216.443359375 245.92286701030648 L 219.66601562499997 248.7142901384011 L 223.62109375 252.63272445626635 L 229.041015625 258.58437010036073 L 242.517578125 273.60690560401275 L 247.05859375000003 277.97943013049013 L 250.8671875 281.1710836630457 L 254.23632812500003 283.5740209351842 L 257.3125 285.3896375807301 L 260.095703125 286.70009839972994 L 262.732421875 287.6351429827894 L 265.22265625 288.2322057613085 L 267.56640625 288.5298781511519 L 269.91015625 288.5610445559517 L 272.107421875 288.3386621673952 L 274.30468750000006 287.86306357602143 L 276.501953125 287.1240768754357 L 278.845703125 286.03342442748607 L 281.18945312500006 284.6174322973048 L 283.6796875 282.74132342602434 L 286.31640625000006 280.3204745124405 L 289.09960937499994 277.26224954326653 L 292.029296875 273.46808386741384 L 294.958984375 269.0731724898983 L 298.03515625 263.81082089101517 L 301.2578125 257.60168921214745 L 304.62695312499994 250.39038660566038 L 308.435546875 241.44677620147337 L 312.9765625 229.90691093438028 L 320.447265625 209.8616103638035 L 326.453125 194.13707318805496 L 330.26171875 185.02980842310788 L 333.33789062499994 178.46080746085298 L 335.974609375 173.53747745954175 L 338.46484375000006 169.58463241944074 L 340.662109375 166.72038922273157 L 342.71289062500006 164.61454279436865 L 344.470703125 163.26756529706975 L 346.08203125 162.4164282569967 L 347.546875 161.96731497979843 L 348.918088514953 161.83000144020522 L 350.18359375 161.94697005960862 L 351.501953125 162.31696255305957 L 352.966796875 163.0225140057429 L 354.57812500000006 164.1509085528241 L 356.33593749999994 165.79203227688302 L 358.38671875 168.2264971479013 L 360.583984375 171.42105956625616 L 362.92773437500006 175.44446042420623 L 365.56445312499994 180.64897407676114 L 368.640625 187.49108554135026 L 372.302734375 196.4749701008094 L 377.4296875 210.0011376876622 L 387.97656249999994 238.03179112606927 L 392.22460937500006 248.3421048603712 L 396.03320312499994 256.76986219803854 L 399.548828125 263.76593370035306 L 402.771484375 269.480249455598 L 405.994140625 274.5198647291611 L 409.216796875 278.9005371153929 L 412.439453125 282.65503197366985 L 415.662109375 285.8287093066543 L 418.73828125000006 288.3656294791201 L 421.814453125 290.4729663737755 L 424.890625 292.2026240418145 L 428.11328125 293.66510053916585 L 431.482421875 294.8710068725574 L 434.998046875 295.8392951801897 L 438.953125 296.64632908372886 L 443.494140625 297.29225772066053 L 448.9140625 297.7843880840661 L 455.79882812500006 298.13062531571325 L 465.61328125000006 298.34000213289573 L 484.216796875 298.42608144961235 L 599.5 298.43371426912023 L 599.5 298.4337142691206 L -0.5 298.4337142691206" fill-opacity="0.5"/><g><path fill="none" stroke="#2d70b3" class="dcg-svg-curve" paint-order="fill stroke markers" d=" M -0.5 298.43371425233886 L -0.5 298.43371425233886 L 95.30078125 298.3036595621342 L 106.14062500000001 298.0119284004339 L 113.46484374999999 297.5638894057389 L 119.177734375 296.96372671887946 L 124.01171875000001 296.2037792358564 L 128.40625 295.24660924475995 L 132.361328125 294.1153617612003 L 136.16992187500003 292.7388368189337 L 139.83203125 291.1109859387849 L 143.34765625 289.2370258913827 L 146.86328125 287.0352271594318 L 150.525390625 284.3784108465046 L 154.48046875 281.09113716525377 L 158.728515625 277.1006974959008 L 163.708984375 271.8986861782553 L 170.59375 264.090319663575 L 180.408203125 252.9913711786443 L 184.802734375 248.61299968748838 L 188.318359375 245.6002722604696 L 191.24804687500003 243.50854181824863 L 193.884765625 242.0000517672413 L 196.228515625 240.98423021388797 L 198.42578125 240.32621128007918 L 200.4765625 239.9782363899837 L 202.52734375 239.89207571398285 L 204.578125 240.06884787191157 L 206.62890625 240.50611859759795 L 208.82617187500003 241.2568823519611 L 211.169921875 242.36660015716419 L 213.66015624999997 243.87376593578355 L 216.443359375 245.92286701030648 L 219.66601562499997 248.7142901384011 L 223.62109375 252.63272445626635 L 229.041015625 258.58437010036073 L 242.517578125 273.60690560401275 L 247.05859375000003 277.97943013049013 L 250.8671875 281.1710836630457 L 254.23632812500003 283.5740209351842 L 257.3125 285.3896375807301 L 260.095703125 286.70009839972994 L 262.732421875 287.6351429827894 L 265.22265625 288.2322057613085 L 267.56640625 288.5298781511519 L 269.91015625 288.5610445559517 L 272.107421875 288.3386621673952 L 274.30468750000006 287.86306357602143 L 276.501953125 287.1240768754357 L 278.845703125 286.03342442748607 L 281.18945312500006 284.6174322973048 L 283.6796875 282.74132342602434 L 286.31640625000006 280.3204745124405 L 289.09960937499994 277.26224954326653 L 292.029296875 273.46808386741384 L 294.958984375 269.0731724898983 L 298.03515625 263.81082089101517 L 301.2578125 257.60168921214745 L 304.62695312499994 250.39038660566038 L 308.435546875 241.44677620147337 L 312.9765625 229.90691093438028 L 320.447265625 209.8616103638035 L 326.453125 194.13707318805496 L 330.26171875 185.02980842310788 L 333.33789062499994 178.46080746085298 L 335.974609375 173.53747745954175 L 338.46484375000006 169.58463241944074 L 340.662109375 166.72038922273157 L 342.71289062500006 164.61454279436865 L 344.470703125 163.26756529706975 L 346.08203125 162.4164282569967 L 347.546875 161.96731497979843 L 348.918088514953 161.83000144020522 L 350.18359375 161.94697005960862 L 351.501953125 162.31696255305957 L 352.966796875 163.0225140057429 L 354.57812500000006 164.1509085528241 L 356.33593749999994 165.79203227688302 L 358.38671875 168.2264971479013 L 360.583984375 171.42105956625616 L 362.92773437500006 175.44446042420623 L 365.56445312499994 180.64897407676114 L 368.640625 187.49108554135026 L 372.302734375 196.4749701008094 L 377.4296875 210.0011376876622 L 387.97656249999994 238.03179112606927 L 392.22460937500006 248.3421048603712 L 396.03320312499994 256.76986219803854 L 399.548828125 263.76593370035306 L 402.771484375 269.480249455598 L 405.994140625 274.5198647291611 L 409.216796875 278.9005371153929 L 412.439453125 282.65503197366985 L 415.662109375 285.8287093066543 L 418.73828125000006 288.3656294791201 L 421.814453125 290.4729663737755 L 424.890625 292.2026240418145 L 428.11328125 293.66510053916585 L 431.482421875 294.8710068725574 L 434.998046875 295.8392951801897 L 438.953125 296.64632908372886 L 443.494140625 297.29225772066053 L 448.9140625 297.7843880840661 L 455.79882812500006 298.13062531571325 L 465.61328125000006 298.34000213289573 L 484.216796875 298.42608144961235 L 599.5 298.43371426912023" stroke-linecap="round" stroke-linejoin="round" stroke-miterlimit="10" stroke-width="2.5" stroke-opacity="0.7" stroke-dasharray=""/></g><g><path fill="none" stroke="#2d70b3" class="dcg-svg-curve" paint-order="fill stroke markers" d=" M -0.5 298.4337142691206 L -0.5 298.4337142691206 L 599.5 298.4337142691206" stroke-linecap="round" stroke-linejoin="round" stroke-miterlimit="10" stroke-width="2.5" stroke-opacity="0.7" stroke-dasharray=""/></g></g><g id="sketch-b5922d2e"><title>Expression 14</title><path fill="#fa7e19" stroke="none" class="dcg-svg-region" paint-order="stroke fill markers" d=" M 330.5751449309095 298.4337142691206 L 330.5751449309095 -3 L 342.80419035179455 -3 L 342.80419035179455 298.4337142691206 M 342.80419035179455 298.4337142691206 L 342.80419035179455 69.13911262752532 L 355.03323577267963 69.13911262752532 L 355.03323577267963 298.4337142691206 M 355.03323577267963 298.4337142691206 L 355.03323577267963 120.09346854787987 L 367.2622811935647 120.09346854787987 L 367.2622811935647 298.4337142691206 M 367.2622811935647 298.4337142691206 L 367.2622811935647 171.04782446823435 L 379.4913266144498 171.04782446823435 L 379.4913266144498 298.4337142691206 M 379.4913266144498 298.4337142691206 L 379.4913266144498 196.5250024284116 L 391.7203720353349 196.5250024284116 L 391.7203720353349 298.4337142691206 M 391.7203720353349 298.4337142691206 L 391.7203720353349 222.00218038858884 L 403.94941745622 222.00218038858884 L 403.94941745622 298.4337142691206 M 403.94941745622 298.4337142691206 L 403.94941745622 222.00218038858884 L 416.1784628771051 222.00218038858884 L 416.1784628771051 298.4337142691206 M 416.1784628771051 298.4337142691206 L 416.1784628771051 247.4793583487661 L 428.40750829799015 247.4793583487661 L 428.40750829799015 298.4337142691206 M 428.40750829799015 298.4337142691206 L 428.40750829799015 272.9565363089433 L 440.63655371887523 272.9565363089433 L 440.63655371887523 298.4337142691206" fill-opacity="0.4"/><path fill="#fa7e19" stroke="none" paint-order="stroke fill markers" d="" fill-opacity="0.4"/><g><path fill="none" stroke="#fa7e19" class="dcg-svg-curve" paint-order="fill stroke markers" d=" M 330.5751449309095 298.4337142691206 L 330.5751449309095 298.4337142691206 L 330.5751449309095 -5.5 L 342.80419035179455 -5.5 L 342.80419035179455 69.13911262752532" stroke-linecap="round" stroke-linejoin="round" stroke-miterlimit="10" stroke-width="2.5" stroke-opacity="0.7" stroke-dasharray=""/></g><g><path fill="none" stroke="#fa7e19" class="dcg-svg-curve" paint-order="fill stroke markers" d=" M 342.80419035179455 298.4337142691206 L 342.80419035179455 298.4337142691206 L 342.80419035179455 69.13911262752532 L 355.03323577267963 69.13911262752532 L 355.03323577267963 120.09346854787987" stroke-linecap="round" stroke-linejoin="round" stroke-miterlimit="10" stroke-width="2.5" stroke-opacity="0.7" stroke-dasharray=""/></g><g><path fill="none" stroke="#fa7e19" class="dcg-svg-curve" paint-order="fill stroke markers" d=" M 355.03323577267963 298.4337142691206 L 355.03323577267963 298.4337142691206 L 355.03323577267963 120.09346854787987 L 367.2622811935647 120.09346854787987 L 367.2622811935647 171.04782446823435" stroke-linecap="round" stroke-linejoin="round" stroke-miterlimit="10" stroke-width="2.5" stroke-opacity="0.7" stroke-dasharray=""/></g><g><path fill="none" stroke="#fa7e19" class="dcg-svg-curve" paint-order="fill stroke markers" d=" M 367.2622811935647 298.4337142691206 L 367.2622811935647 298.4337142691206 L 367.2622811935647 171.04782446823435 L 379.4913266144498 171.04782446823435 L 379.4913266144498 196.5250024284116" stroke-linecap="round" stroke-linejoin="round" stroke-miterlimit="10" stroke-width="2.5" stroke-opacity="0.7" stroke-dasharray=""/></g><g><path fill="none" stroke="#fa7e19" class="dcg-svg-curve" paint-order="fill stroke markers" d=" M 379.4913266144498 298.4337142691206 L 379.4913266144498 298.4337142691206 L 379.4913266144498 196.5250024284116 L 391.7203720353349 196.5250024284116 L 391.7203720353349 222.00218038858884" stroke-linecap="round" stroke-linejoin="round" stroke-miterlimit="10" stroke-width="2.5" stroke-opacity="0.7" stroke-dasharray=""/></g><g><path fill="none" stroke="#fa7e19" class="dcg-svg-curve" paint-order="fill stroke markers" d=" M 391.7203720353349 298.4337142691206 L 391.7203720353349 298.4337142691206 L 391.7203720353349 222.00218038858884 L 403.94941745622 222.00218038858884" stroke-linecap="round" stroke-linejoin="round" stroke-miterlimit="10" stroke-width="2.5" stroke-opacity="0.7" stroke-dasharray=""/></g><g><path fill="none" stroke="#fa7e19" class="dcg-svg-curve" paint-order="fill stroke markers" d=" M 403.94941745622 298.4337142691206 L 403.94941745622 298.4337142691206 L 403.94941745622 222.00218038858884 L 416.1784628771051 222.00218038858884 L 416.1784628771051 247.4793583487661" stroke-linecap="round" stroke-linejoin="round" stroke-miterlimit="10" stroke-width="2.5" stroke-opacity="0.7" stroke-dasharray=""/></g><g><path fill="none" stroke="#fa7e19" class="dcg-svg-curve" paint-order="fill stroke markers" d=" M 416.1784628771051 298.4337142691206 L 416.1784628771051 298.4337142691206 L 416.1784628771051 247.4793583487661 L 428.40750829799015 247.4793583487661 L 428.40750829799015 272.9565363089433" stroke-linecap="round" stroke-linejoin="round" stroke-miterlimit="10" stroke-width="2.5" stroke-opacity="0.7" stroke-dasharray=""/></g><g><path fill="none" stroke="#fa7e19" class="dcg-svg-curve" paint-order="fill stroke markers" d=" M 428.40750829799015 298.4337142691206 L 428.40750829799015 298.4337142691206 L 428.40750829799015 272.9565363089433 L 440.63655371887523 272.9565363089433 L 440.63655371887523 298.4337142691206" stroke-linecap="round" stroke-linejoin="round" stroke-miterlimit="10" stroke-width="2.5" stroke-opacity="0.7" stroke-dasharray=""/></g></g><g id="sketch-b5922d2e"><title>Expression 15</title><path fill="none" stroke="#fa7e19" class="dcg-svg-point" paint-order="fill stroke markers" d=" M 431.60494256237763 298.3337142691206 L 431.60494256237763 298.53371426912065 L 431.8049425623777 298.53371426912065 L 431.8049425623777 298.3337142691206" stroke-linecap="round" stroke-linejoin="round" stroke-miterlimit="10" stroke-width="7.5" stroke-opacity="0.9" stroke-dasharray=""/><path fill="none" stroke="#fa7e19" class="dcg-svg-point" paint-order="fill stroke markers" d=" M 425.68541482610937 298.3337142691206 L 425.68541482610937 298.53371426912065 L 425.8854148261094 298.53371426912065 L 425.8854148261094 298.3337142691206" stroke-linecap="round" stroke-linejoin="round" stroke-miterlimit="10" stroke-width="7.5" stroke-opacity="0.9" stroke-dasharray=""/><path fill="none" stroke="#fa7e19" class="dcg-svg-point" paint-order="fill stroke markers" d=" M 420.1755802345666 298.3337142691206 L 420.1755802345666 298.53371426912065 L 420.37558023456666 298.53371426912065 L 420.37558023456666 298.3337142691206" stroke-linecap="round" stroke-linejoin="round" stroke-miterlimit="10" stroke-width="7.5" stroke-opacity="0.9" stroke-dasharray=""/><path fill="none" stroke="#fa7e19" class="dcg-svg-point" paint-order="fill stroke markers" d=" M 415.03964308233446 298.3337142691206 L 415.03964308233446 298.53371426912065 L 415.2396430823345 298.53371426912065 L 415.2396430823345 298.3337142691206" stroke-linecap="round" stroke-linejoin="round" stroke-miterlimit="10" stroke-width="7.5" stroke-opacity="0.9" stroke-dasharray=""/><path fill="none" stroke="#fa7e19" class="dcg-svg-point" paint-order="fill stroke markers" d=" M 410.2452131363832 298.3337142691206 L 410.2452131363832 298.53371426912065 L 410.44521313638325 298.53371426912065 L 410.44521313638325 298.3337142691206" stroke-linecap="round" stroke-linejoin="round" stroke-miterlimit="10" stroke-width="7.5" stroke-opacity="0.9" stroke-dasharray=""/><path fill="none" stroke="#fa7e19" class="dcg-svg-point" paint-order="fill stroke markers" d=" M 405.76295682563233 298.3337142691206 L 405.76295682563233 298.53371426912065 L 405.9629568256324 298.53371426912065 L 405.9629568256324 298.3337142691206" stroke-linecap="round" stroke-linejoin="round" stroke-miterlimit="10" stroke-width="7.5" stroke-opacity="0.9" stroke-dasharray=""/><path fill="none" stroke="#fa7e19" class="dcg-svg-point" paint-order="fill stroke markers" d=" M 401.5662874090672 298.3337142691206 L 401.5662874090672 298.53371426912065 L 401.7662874090672 298.53371426912065 L 401.7662874090672 298.3337142691206" stroke-linecap="round" stroke-linejoin="round" stroke-miterlimit="10" stroke-width="7.5" stroke-opacity="0.9" stroke-dasharray=""/><path fill="none" stroke="#fa7e19" class="dcg-svg-point" paint-order="fill stroke markers" d=" M 397.6310896334501 298.3337142691206 L 397.6310896334501 298.53371426912065 L 397.8310896334501 298.53371426912065 L 397.8310896334501 298.3337142691206" stroke-linecap="round" stroke-linejoin="round" stroke-miterlimit="10" stroke-width="7.5" stroke-opacity="0.9" stroke-dasharray=""/><path fill="none" stroke="#fa7e19" class="dcg-svg-point" paint-order="fill stroke markers" d=" M 393.93547494810775 298.3337142691206 L 393.93547494810775 298.53371426912065 L 394.1354749481078 298.53371426912065 L 394.1354749481078 298.3337142691206" stroke-linecap="round" stroke-linejoin="round" stroke-miterlimit="10" stroke-width="7.5" stroke-opacity="0.9" stroke-dasharray=""/><path fill="none" stroke="#fa7e19" class="dcg-svg-point" paint-order="fill stroke markers" d=" M 390.4595638306781 298.3337142691206 L 390.4595638306781 298.53371426912065 L 390.65956383067817 298.53371426912065 L 390.65956383067817 298.3337142691206" stroke-linecap="round" stroke-linejoin="round" stroke-miterlimit="10" stroke-width="7.5" stroke-opacity="0.9" stroke-dasharray=""/><path fill="none" stroke="#fa7e19" class="dcg-svg-point" paint-order="fill stroke markers" d=" M 387.18529220345266 298.3337142691206 L 387.18529220345266 298.53371426912065 L 387.3852922034527 298.53371426912065 L 387.3852922034527 298.3337142691206" stroke-linecap="round" stroke-linejoin="round" stroke-miterlimit="10" stroke-width="7.5" stroke-opacity="0.9" stroke-dasharray=""/><path fill="none" stroke="#fa7e19" class="dcg-svg-point" paint-order="fill stroke markers" d=" M 384.0962392931576 298.3337142691206 L 384.0962392931576 298.53371426912065 L 384.29623929315767 298.53371426912065 L 384.29623929315767 298.3337142691206" stroke-linecap="round" stroke-linejoin="round" stroke-miterlimit="10" stroke-width="7.5" stroke-opacity="0.9" stroke-dasharray=""/><path fill="none" stroke="#fa7e19" class="dcg-svg-point" paint-order="fill stroke markers" d=" M 381.17747461471845 298.3337142691206 L 381.17747461471845 298.53371426912065 L 381.3774746147185 298.53371426912065 L 381.3774746147185 298.3337142691206" stroke-linecap="round" stroke-linejoin="round" stroke-miterlimit="10" stroke-width="7.5" stroke-opacity="0.9" stroke-dasharray=""/><path fill="none" stroke="#fa7e19" class="dcg-svg-point" paint-order="fill stroke markers" d=" M 378.4154220478299 298.3337142691206 L 378.4154220478299 298.53371426912065 L 378.61542204782995 298.53371426912065 L 378.61542204782995 298.3337142691206" stroke-linecap="round" stroke-linejoin="round" stroke-miterlimit="10" stroke-width="7.5" stroke-opacity="0.9" stroke-dasharray=""/><path fill="none" stroke="#fa7e19" class="dcg-svg-point" paint-order="fill stroke markers" d=" M 375.79773922931736 298.3337142691206 L 375.79773922931736 298.53371426912065 L 375.9977392293174 298.53371426912065 L 375.9977392293174 298.3337142691206" stroke-linecap="round" stroke-linejoin="round" stroke-miterlimit="10" stroke-width="7.5" stroke-opacity="0.9" stroke-dasharray=""/><path fill="none" stroke="#fa7e19" class="dcg-svg-point" paint-order="fill stroke markers" d=" M 373.3132107089241 298.3337142691206 L 373.3132107089241 298.53371426912065 L 373.51321070892413 298.53371426912065 L 373.51321070892413 298.3337142691206" stroke-linecap="round" stroke-linejoin="round" stroke-miterlimit="10" stroke-width="7.5" stroke-opacity="0.9" stroke-dasharray=""/><path fill="none" stroke="#fa7e19" class="dcg-svg-point" paint-order="fill stroke markers" d=" M 370.9516535153319 298.3337142691206 L 370.9516535153319 298.53371426912065 L 371.15165351533193 298.53371426912065 L 371.15165351533193 298.3337142691206" stroke-linecap="round" stroke-linejoin="round" stroke-miterlimit="10" stroke-width="7.5" stroke-opacity="0.9" stroke-dasharray=""/><path fill="none" stroke="#fa7e19" class="dcg-svg-point" paint-order="fill stroke markers" d=" M 368.7038339564293 298.3337142691206 L 368.7038339564293 298.53371426912065 L 368.90383395642937 298.53371426912065 L 368.90383395642937 298.3337142691206" stroke-linecap="round" stroke-linejoin="round" stroke-miterlimit="10" stroke-width="7.5" stroke-opacity="0.9" stroke-dasharray=""/><path fill="none" stroke="#fa7e19" class="dcg-svg-point" paint-order="fill stroke markers" d=" M 366.56139463619394 298.3337142691206 L 366.56139463619394 298.53371426912065 L 366.761394636194 298.53371426912065 L 366.761394636194 298.3337142691206" stroke-linecap="round" stroke-linejoin="round" stroke-miterlimit="10" stroke-width="7.5" stroke-opacity="0.9" stroke-dasharray=""/><path fill="none" stroke="#fa7e19" class="dcg-svg-point" paint-order="fill stroke markers" d=" M 364.5167908127692 298.3337142691206 L 364.5167908127692 298.53371426912065 L 364.71679081276926 298.53371426912065 L 364.71679081276926 298.3337142691206" stroke-linecap="round" stroke-linejoin="round" stroke-miterlimit="10" stroke-width="7.5" stroke-opacity="0.9" stroke-dasharray=""/><path fill="none" stroke="#fa7e19" class="dcg-svg-point" paint-order="fill stroke markers" d=" M 362.5632353508303 298.3337142691206 L 362.5632353508303 298.53371426912065 L 362.76323535083037 298.53371426912065 L 362.76323535083037 298.3337142691206" stroke-linecap="round" stroke-linejoin="round" stroke-miterlimit="10" stroke-width="7.5" stroke-opacity="0.9" stroke-dasharray=""/><path fill="none" stroke="#fa7e19" class="dcg-svg-point" paint-order="fill stroke markers" d=" M 360.694651638299 298.3337142691206 L 360.694651638299 298.53371426912065 L 360.894651638299 298.53371426912065 L 360.894651638299 298.3337142691206" stroke-linecap="round" stroke-linejoin="round" stroke-miterlimit="10" stroke-width="7.5" stroke-opacity="0.9" stroke-dasharray=""/><path fill="none" stroke="#fa7e19" class="dcg-svg-point" paint-order="fill stroke markers" d=" M 358.905633944838 298.3337142691206 L 358.905633944838 298.53371426912065 L 359.105633944838 298.53371426912065 L 359.105633944838 298.3337142691206" stroke-linecap="round" stroke-linejoin="round" stroke-miterlimit="10" stroke-width="7.5" stroke-opacity="0.9" stroke-dasharray=""/><path fill="none" stroke="#fa7e19" class="dcg-svg-point" paint-order="fill stroke markers" d=" M 357.1914147990977 298.3337142691206 L 357.1914147990977 298.53371426912065 L 357.39141479909773 298.53371426912065 L 357.39141479909773 298.3337142691206" stroke-linecap="round" stroke-linejoin="round" stroke-miterlimit="10" stroke-width="7.5" stroke-opacity="0.9" stroke-dasharray=""/><path fill="none" stroke="#fa7e19" class="dcg-svg-point" paint-order="fill stroke markers" d=" M 355.54783905502035 298.3337142691206 L 355.54783905502035 298.53371426912065 L 355.7478390550204 298.53371426912065 L 355.7478390550204 298.3337142691206" stroke-linecap="round" stroke-linejoin="round" stroke-miterlimit="10" stroke-width="7.5" stroke-opacity="0.9" stroke-dasharray=""/><path fill="none" stroke="#fa7e19" class="dcg-svg-point" paint-order="fill stroke markers" d=" M 353.97134440615093 298.3337142691206 L 353.97134440615093 298.53371426912065 L 354.171344406151 298.53371426912065 L 354.171344406151 298.3337142691206" stroke-linecap="round" stroke-linejoin="round" stroke-miterlimit="10" stroke-width="7.5" stroke-opacity="0.9" stroke-dasharray=""/><path fill="none" stroke="#fa7e19" class="dcg-svg-point" paint-order="fill stroke markers" d=" M 352.4589481922716 298.3337142691206 L 352.4589481922716 298.53371426912065 L 352.6589481922716 298.53371426912065 L 352.6589481922716 298.3337142691206" stroke-linecap="round" stroke-linejoin="round" stroke-miterlimit="10" stroke-width="7.5" stroke-opacity="0.9" stroke-dasharray=""/><path fill="none" stroke="#fa7e19" class="dcg-svg-point" paint-order="fill stroke markers" d=" M 351.0082404261501 298.3337142691206 L 351.0082404261501 298.53371426912065 L 351.20824042615016 298.53371426912065 L 351.20824042615016 298.3337142691206" stroke-linecap="round" stroke-linejoin="round" stroke-miterlimit="10" stroke-width="7.5" stroke-opacity="0.9" stroke-dasharray=""/><path fill="none" stroke="#fa7e19" class="dcg-svg-point" paint-order="fill stroke markers" d=" M 349.61738305109975 298.3337142691206 L 349.61738305109975 298.53371426912065 L 349.8173830510998 298.53371426912065 L 349.8173830510998 298.3337142691206" stroke-linecap="round" stroke-linejoin="round" stroke-miterlimit="10" stroke-width="7.5" stroke-opacity="0.9" stroke-dasharray=""/><path fill="none" stroke="#fa7e19" class="dcg-svg-point" paint-order="fill stroke markers" d=" M 348.2851155237266 298.3337142691206 L 348.2851155237266 298.53371426912065 L 348.4851155237266 298.53371426912065 L 348.4851155237266 298.3337142691206" stroke-linecap="round" stroke-linejoin="round" stroke-miterlimit="10" stroke-width="7.5" stroke-opacity="0.9" stroke-dasharray=""/><path fill="none" stroke="#fa7e19" class="dcg-svg-point" paint-order="fill stroke markers" d=" M 347.01076690203644 298.3337142691206 L 347.01076690203644 298.53371426912065 L 347.2107669020365 298.53371426912065 L 347.2107669020365 298.3337142691206" stroke-linecap="round" stroke-linejoin="round" stroke-miterlimit="10" stroke-width="7.5" stroke-opacity="0.9" stroke-dasharray=""/><path fill="none" stroke="#fa7e19" class="dcg-svg-point" paint-order="fill stroke markers" d=" M 345.7942747083839 298.3337142691206 L 345.7942747083839 298.53371426912065 L 345.99427470838395 298.53371426912065 L 345.99427470838395 298.3337142691206" stroke-linecap="round" stroke-linejoin="round" stroke-miterlimit="10" stroke-width="7.5" stroke-opacity="0.9" stroke-dasharray=""/><path fill="none" stroke="#fa7e19" class="dcg-svg-point" paint-order="fill stroke markers" d=" M 344.6362109310344 298.3337142691206 L 344.6362109310344 298.53371426912065 L 344.83621093103443 298.53371426912065 L 344.83621093103443 298.3337142691206" stroke-linecap="round" stroke-linejoin="round" stroke-miterlimit="10" stroke-width="7.5" stroke-opacity="0.9" stroke-dasharray=""/><path fill="none" stroke="#fa7e19" class="dcg-svg-point" paint-order="fill stroke markers" d=" M 343.5378156289446 298.3337142691206 L 343.5378156289446 298.53371426912065 L 343.73781562894465 298.53371426912065 L 343.73781562894465 298.3337142691206" stroke-linecap="round" stroke-linejoin="round" stroke-miterlimit="10" stroke-width="7.5" stroke-opacity="0.9" stroke-dasharray=""/><path fill="none" stroke="#fa7e19" class="dcg-svg-point" paint-order="fill stroke markers" d=" M 342.50103871343504 298.3337142691206 L 342.50103871343504 298.53371426912065 L 342.7010387134351 298.53371426912065 L 342.7010387134351 298.3337142691206" stroke-linecap="round" stroke-linejoin="round" stroke-miterlimit="10" stroke-width="7.5" stroke-opacity="0.9" stroke-dasharray=""/><path fill="none" stroke="#fa7e19" class="dcg-svg-point" paint-order="fill stroke markers" d=" M 341.52859059959343 298.3337142691206 L 341.52859059959343 298.53371426912065 L 341.7285905995935 298.53371426912065 L 341.7285905995935 298.3337142691206" stroke-linecap="round" stroke-linejoin="round" stroke-miterlimit="10" stroke-width="7.5" stroke-opacity="0.9" stroke-dasharray=""/><path fill="none" stroke="#fa7e19" class="dcg-svg-point" paint-order="fill stroke markers" d=" M 340.62400255156115 298.3337142691206 L 340.62400255156115 298.53371426912065 L 340.8240025515612 298.53371426912065 L 340.8240025515612 298.3337142691206" stroke-linecap="round" stroke-linejoin="round" stroke-miterlimit="10" stroke-width="7.5" stroke-opacity="0.9" stroke-dasharray=""/><path fill="none" stroke="#fa7e19" class="dcg-svg-point" paint-order="fill stroke markers" d=" M 339.7916976916125 298.3337142691206 L 339.7916976916125 298.53371426912065 L 339.99169769161256 298.53371426912065 L 339.99169769161256 298.3337142691206" stroke-linecap="round" stroke-linejoin="round" stroke-miterlimit="10" stroke-width="7.5" stroke-opacity="0.9" stroke-dasharray=""/><path fill="none" stroke="#fa7e19" class="dcg-svg-point" paint-order="fill stroke markers" d=" M 339.0370738057271 298.3337142691206 L 339.0370738057271 298.53371426912065 L 339.23707380572716 298.53371426912065 L 339.23707380572716 298.3337142691206" stroke-linecap="round" stroke-linejoin="round" stroke-miterlimit="10" stroke-width="7.5" stroke-opacity="0.9" stroke-dasharray=""/><path fill="none" stroke="#fa7e19" class="dcg-svg-point" paint-order="fill stroke markers" d=" M 338.36659926109445 298.3337142691206 L 338.36659926109445 298.53371426912065 L 338.5665992610945 298.53371426912065 L 338.5665992610945 298.3337142691206" stroke-linecap="round" stroke-linejoin="round" stroke-miterlimit="10" stroke-width="7.5" stroke-opacity="0.9" stroke-dasharray=""/><path fill="none" stroke="#fa7e19" class="dcg-svg-point" paint-order="fill stroke markers" d=" M 337.7879235570108 298.3337142691206 L 337.7879235570108 298.53371426912065 L 337.98792355701084 298.53371426912065 L 337.98792355701084 298.3337142691206" stroke-linecap="round" stroke-linejoin="round" stroke-miterlimit="10" stroke-width="7.5" stroke-opacity="0.9" stroke-dasharray=""/><path fill="none" stroke="#fa7e19" class="dcg-svg-point" paint-order="fill stroke markers" d=" M 337.3100042637213 298.3337142691206 L 337.3100042637213 298.53371426912065 L 337.5100042637213 298.53371426912065 L 337.5100042637213 298.3337142691206" stroke-linecap="round" stroke-linejoin="round" stroke-miterlimit="10" stroke-width="7.5" stroke-opacity="0.9" stroke-dasharray=""/><path fill="none" stroke="#fa7e19" class="dcg-svg-point" paint-order="fill stroke markers" d=" M 336.9432523682767 298.3337142691206 L 336.9432523682767 298.53371426912065 L 337.14325236827676 298.53371426912065 L 337.14325236827676 298.3337142691206" stroke-linecap="round" stroke-linejoin="round" stroke-miterlimit="10" stroke-width="7.5" stroke-opacity="0.9" stroke-dasharray=""/><path fill="none" stroke="#fa7e19" class="dcg-svg-point" paint-order="fill stroke markers" d=" M 336.6996983474097 298.3337142691206 L 336.6996983474097 298.53371426912065 L 336.89969834740975 298.53371426912065 L 336.89969834740975 298.3337142691206" stroke-linecap="round" stroke-linejoin="round" stroke-miterlimit="10" stroke-width="7.5" stroke-opacity="0.9" stroke-dasharray=""/><path fill="none" stroke="#fa7e19" class="dcg-svg-point" paint-order="fill stroke markers" d=" M 336.5931816305345 298.3337142691206 L 336.5931816305345 298.53371426912065 L 336.79318163053455 298.53371426912065 L 336.79318163053455 298.3337142691206" stroke-linecap="round" stroke-linejoin="round" stroke-miterlimit="10" stroke-width="7.5" stroke-opacity="0.9" stroke-dasharray=""/><path fill="none" stroke="#fa7e19" class="dcg-svg-point" paint-order="fill stroke markers" d=" M 336.6395665078728 298.3337142691206 L 336.6395665078728 298.53371426912065 L 336.83956650787286 298.53371426912065 L 336.83956650787286 298.3337142691206" stroke-linecap="round" stroke-linejoin="round" stroke-miterlimit="10" stroke-width="7.5" stroke-opacity="0.9" stroke-dasharray=""/><path fill="none" stroke="#fa7e19" class="dcg-svg-point" paint-order="fill stroke markers" d=" M 336.8569879870644 298.3337142691206 L 336.8569879870644 298.53371426912065 L 337.0569879870644 298.53371426912065 L 337.0569879870644 298.3337142691206" stroke-linecap="round" stroke-linejoin="round" stroke-miterlimit="10" stroke-width="7.5" stroke-opacity="0.9" stroke-dasharray=""/><path fill="none" stroke="#fa7e19" class="dcg-svg-point" paint-order="fill stroke markers" d=" M 337.26613161529156 298.3337142691206 L 337.26613161529156 298.53371426912065 L 337.4661316152916 298.53371426912065 L 337.4661316152916 298.3337142691206" stroke-linecap="round" stroke-linejoin="round" stroke-miterlimit="10" stroke-width="7.5" stroke-opacity="0.9" stroke-dasharray=""/></g><g id="sketch-b5922d2e"><title>Expression 16</title><path fill="#388c46" stroke="none" paint-order="stroke fill markers" d="" fill-opacity="0.4"/><g><path fill="none" stroke="#388c46" class="dcg-svg-curve" paint-order="fill stroke markers" d=" M 150.25254090802628 -11 L 150.25254090802628 -11 L 154.44613647460938 0.9255956338171245 L 162.0335693359375 21.55171785237468 L 169.47222900390625 40.85940210441021 L 176.76211547851565 58.90294566898467 L 183.90322875976565 75.73555987957809 L 190.89556884765625 91.40937012408955 L 197.88790893554688 106.283562438959 L 204.7314758300781 120.06700337750311 L 211.42626953125 132.80964643645814 L 217.9722900390625 144.56035916697923 L 224.518310546875 155.6102750157499 L 230.91555786132812 165.7319693435185 L 237.16403198242188 174.97213781027764 L 243.41250610351562 183.57377027527662 L 249.51220703125003 191.35468983181477 L 255.61190795898443 198.5271178810066 L 261.7116088867187 205.09105442285212 L 267.5137634277344 210.7701072360293 L 273.01837158203125 215.6489800758736 L 278.2254333496094 219.8080329153957 L 283.2837219238281 223.42365095152965 L 288.1932373046875 226.5327563340372 L 292.8052062988281 229.09434508177685 L 297.4171752929688 231.30806926166412 L 301.88037109374994 233.11916958186214 L 306.1947937011719 234.5602244098076 L 310.3604431152344 235.66272616735606 L 314.5260925292969 236.48143414634444 L 318.54296875 237.0021310233015 L 322.5598449707031 237.25894312402093 L 326.57672119140625 237.25187044850276 L 330.59359741210943 236.98091299674695 L 334.61047363281256 236.4460707687535 L 338.6273498535157 235.64734376452245 L 342.7929992675781 234.54030824613884 L 346.9586486816406 233.1494789491951 L 351.2730712890625 231.40979916973313 L 355.73626708984375 229.28977648589736 L 360.199462890625 226.84397012769412 L 364.81143188476557 223.97438304186812 L 369.5721740722656 220.64735091540132 L 374.6304626464844 216.70623563365228 L 379.8375244140625 212.21211210011472 L 385.3421325683594 206.97902166945406 L 390.9955139160156 201.08867221120724 L 396.9464416503906 194.32361265818423 L 403.046142578125 186.78835573712772 L 409.1458435058594 178.6446073087249 L 415.3943176269531 169.67129648718168 L 421.6427917480469 160.05944966387818 L 428.04003906249994 149.55722749488567 L 434.43728637695307 138.38570086599833 L 440.9833068847657 126.26153801143158 L 447.67810058593756 113.13695732561177 L 454.3728942871094 99.27936337246524 L 461.21646118164057 84.356194853192 L 468.20880126953125 68.31749827105574 L 475.34991455078125 51.112234183739076 L 482.6398010253906 32.68827720334275 L 489.92968749999994 13.395201776106433 L 497.36834716796875 -7.187514988849273 L 498.68760783738304 -11" stroke-linecap="round" stroke-linejoin="round" stroke-miterlimit="10" stroke-width="8" stroke-opacity="0.8" stroke-dasharray=""/></g></g><g id="sketch-b5922d2e"><title>"G"</title></g><g id="sketch-b5922d2e"><title>"X"</title></g><g id="sketch-b5922d2e"><title>"G" ( "z" )</title></g></g><g id="labels-b5922d2e"><g transform="rotate(0,0,0) translate(198.14542120588868,196.8211850047302)"><g class="dcg-svg-label"><g transform="translate(-13.293858705888681,-24.20399750473021)"><g><text fill="none" stroke="#FFF" font-family="&quot;Times New Roman&quot;, Symbola, serif" font-size="35.42px" font-style="italic" font-weight="normal" text-decoration="normal" x="0" y="31.924239999999998" text-anchor="start" stroke-linecap="round" stroke-linejoin="round" stroke-miterlimit="2" stroke-width="3" stroke-dasharray="">G</text></g></g><g transform="translate(-13.293858705888681,-24.20399750473021)"><g><text fill="rgb(116, 175, 126)" stroke="none" font-family="&quot;Times New Roman&quot;, Symbola, serif" font-size="35.42px" font-style="italic" font-weight="normal" text-decoration="normal" x="0" y="31.924239999999998" text-anchor="start">G</text></g></g></g></g><g transform="rotate(0,0,0) translate(244.98266516787854,328.65029464187137)"><g class="dcg-svg-label"><g transform="translate(-11.334227667878537,-24.20498214187137)"><g><text fill="none" stroke="#FFF" font-family="&quot;Times New Roman&quot;, Symbola, serif" font-size="35.42px" font-style="italic" font-weight="normal" text-decoration="normal" x="0" y="31.924239999999998" text-anchor="start" stroke-linecap="round" stroke-linejoin="round" stroke-miterlimit="2" stroke-width="3" stroke-dasharray="">X</text></g></g><g transform="translate(-11.334227667878537,-24.20498214187137)"><g><text fill="rgb(108, 155, 202)" stroke="none" font-family="&quot;Times New Roman&quot;, Symbola, serif" font-size="35.42px" font-style="italic" font-weight="normal" text-decoration="normal" x="0" y="31.924239999999998" text-anchor="start">X</text></g></g></g></g><g transform="rotate(0,0,0) translate(388.5516584090694,328.7725850960802)"><g class="dcg-svg-label"><g transform="translate(-31.981345909069375,-24.202272596080206)"><g><text fill="none" stroke="#FFF" font-family="&quot;Times New Roman&quot;, Symbola, serif" font-size="35.42px" font-style="italic" font-weight="normal" text-decoration="normal" x="0" y="31.924239999999998" text-anchor="start" stroke-linecap="round" stroke-linejoin="round" stroke-miterlimit="2" stroke-width="3" stroke-dasharray="">G</text></g></g><g transform="translate(-6.4032209090693755,-20.202272596080206)"><g><text fill="none" stroke="#FFF" font-family="Symbola, &quot;Times New Roman&quot;, serif" font-size="35.42px" font-style="normal" font-weight="normal" text-decoration="normal" x="0" y="27.924239999999998" text-anchor="start" stroke-linecap="round" stroke-linejoin="round" stroke-miterlimit="2" stroke-width="3" stroke-dasharray="">(</text></g></g><g transform="translate(5.3936540909306245,-24.202272596080206)"><g><text fill="none" stroke="#FFF" font-family="&quot;Times New Roman&quot;, Symbola, serif" font-size="35.42px" font-style="italic" font-weight="normal" text-decoration="normal" x="0" y="31.924239999999998" text-anchor="start" stroke-linecap="round" stroke-linejoin="round" stroke-miterlimit="2" stroke-width="3" stroke-dasharray="">z</text></g></g><g transform="translate(19.174904090930625,-20.202272596080206)"><g><text fill="none" stroke="#FFF" font-family="Symbola, &quot;Times New Roman&quot;, serif" font-size="35.42px" font-style="normal" font-weight="normal" text-decoration="normal" x="0" y="27.924239999999998" text-anchor="start" stroke-linecap="round" stroke-linejoin="round" stroke-miterlimit="2" stroke-width="3" stroke-dasharray="">)</text></g></g><g transform="translate(-31.981345909069375,-24.202272596080206)"><g><text fill="rgb(252, 165, 94)" stroke="none" font-family="&quot;Times New Roman&quot;, Symbola, serif" font-size="35.42px" font-style="italic" font-weight="normal" text-decoration="normal" x="0" y="31.924239999999998" text-anchor="start">G</text></g></g><g transform="translate(-6.4032209090693755,-20.202272596080206)"><g><text fill="rgb(252, 165, 94)" stroke="none" font-family="Symbola, &quot;Times New Roman&quot;, serif" font-size="35.42px" font-style="normal" font-weight="normal" text-decoration="normal" x="0" y="27.924239999999998" text-anchor="start">(</text></g></g><g transform="translate(5.3936540909306245,-24.202272596080206)"><g><text fill="rgb(252, 165, 94)" stroke="none" font-family="&quot;Times New Roman&quot;, Symbola, serif" font-size="35.42px" font-style="italic" font-weight="normal" text-decoration="normal" x="0" y="31.924239999999998" text-anchor="start">z</text></g></g><g transform="translate(19.174904090930625,-20.202272596080206)"><g><text fill="rgb(252, 165, 94)" stroke="none" font-family="Symbola, &quot;Times New Roman&quot;, serif" font-size="35.42px" font-style="normal" font-weight="normal" text-decoration="normal" x="0" y="27.924239999999998" text-anchor="start">)</text></g></g></g></g></g></g></svg>
