<svg xmlns="http://www.w3.org/2000/svg" xmlns:xlink="http://www.w3.org/1999/xlink" version="1.1" width="700px" viewBox="-0.5 -0.5 700 610" style="max-width:100%;max-height:610px;"><defs/><g><path d="M 145 185 L 335 305" fill="none" stroke="#aaa" stroke-width="45" stroke-miterlimit="10" pointer-events="stroke"/><path d="M 145 425 L 335 85" fill="none" stroke="#aaa" stroke-width="45" stroke-miterlimit="10" pointer-events="stroke"/><path d="M 145 185 L 335 85" fill="none" stroke="#aaa" stroke-width="45" stroke-miterlimit="10" pointer-events="stroke"/><path d="M 145 425 L 335 305" fill="none" stroke="#aaa" stroke-width="45" stroke-miterlimit="10" pointer-events="stroke"/><path d="M 145 425 L 335 525" fill="none" stroke="#aaa" stroke-width="45" stroke-miterlimit="10" pointer-events="stroke"/><path d="M 145 185 L 335 525" fill="none" stroke="#aaa" stroke-width="45" stroke-miterlimit="10" pointer-events="stroke"/><path d="M 455 85 L 555 305" fill="none" stroke="#aaa" stroke-width="45" stroke-miterlimit="10" pointer-events="stroke"/><path d="M 455 305 L 555 305" fill="none" stroke="#aaa" stroke-width="45" stroke-miterlimit="10" pointer-events="stroke"/><path d="M 455 525 L 555 305" fill="none" stroke="#aaa" stroke-width="45" stroke-miterlimit="10" pointer-events="stroke"/><ellipse cx="85" cy="425" rx="60" ry="60" fill="none" stroke="#ccc" stroke-width="50" pointer-events="all"/><ellipse cx="85" cy="185" rx="60" ry="60" fill="none" stroke="#ccc" stroke-width="50" pointer-events="all"/><ellipse cx="395" cy="85" rx="60" ry="60" fill="none" stroke="#ccc" stroke-width="50" pointer-events="all"/><ellipse cx="395" cy="305" rx="60" ry="60" fill="none" stroke="#ccc" stroke-width="50" pointer-events="all"/><ellipse cx="395" cy="525" rx="60" ry="60" fill="none" stroke="#ccc" stroke-width="50" pointer-events="all"/><ellipse cx="615" cy="305" rx="60" ry="60" fill="none" stroke="#ccc" stroke-width="50" pointer-events="all"/></g></svg>
